<?xml version="1.0" encoding="utf-8"?>
<!-- Generator: Adobe Illustrator 23.1.0, SVG Export Plug-In . SVG Version: 6.00 Build 0)  -->
<svg version="1.2" baseProfile="tiny" id="Layer_1" xmlns="http://www.w3.org/2000/svg" xmlns:xlink="http://www.w3.org/1999/xlink"
	 x="0px" y="0px" viewBox="0 0 8192 8192" xml:space="preserve">
<g>
	<rect y="14.4" fill="#01AFCC" width="8192" height="8171.5"/>
	<g>
		<g>
			<g>
				<ellipse fill="#FBB902" cx="1121.9" cy="4458.9" rx="727.5" ry="725.6"/>
				<rect x="399.4" y="1181.8" fill="#FBB902" width="1454.1" height="3276.8"/>
			</g>
			<g>
				<ellipse fill="#FBB902" cx="1121.9" cy="1184.1" rx="727.5" ry="725.6"/>
				<rect x="399.4" y="1181.8" fill="#FBB902" width="1454.1" height="3276.8"/>
			</g>
		</g>
		<g>
			<g>
				<ellipse fill="#FBB902" cx="4484.3" cy="1184.1" rx="727.5" ry="725.6"/>
				<rect x="1198.1" y="454.7" fill="#FBB902" width="3287" height="1454.1"/>
			</g>
			<g>
				<ellipse fill="#FBB902" cx="1201.2" cy="1184.1" rx="727.5" ry="725.6"/>
				<rect x="1198.1" y="454.7" fill="#FBB902" width="3287" height="1454.1"/>
			</g>
		</g>
	</g>
	<g>
		<g>
			<ellipse fill="#FBB902" cx="7160.9" cy="3777.5" rx="727.5" ry="725.6"/>
			<rect x="6430.7" y="3772.5" fill="#FBB902" width="1454.1" height="3276.8"/>
		</g>
		<g>
			<ellipse fill="#FBB902" cx="7160.9" cy="7052.2" rx="727.5" ry="725.6"/>
			<rect x="6430.7" y="3772.5" fill="#FBB902" width="1454.1" height="3276.8"/>
		</g>
	</g>
	<g>
		<g>
			<ellipse fill="#FBB902" cx="2930.2" cy="5257.9" rx="727.5" ry="725.6"/>
			<polygon fill="#FBB902" points="3444.5,5772.1 2415.8,4745.9 4737.2,2430.3 5765.9,3456.4 			"/>
		</g>
		<g>
			<ellipse fill="#FBB902" cx="5251.6" cy="2942.3" rx="727.5" ry="725.6"/>
			<polygon fill="#FBB902" points="4737.2,2428.2 5766,3454.4 3444.6,5770 2415.8,4743.8 			"/>
		</g>
	</g>
	<g>
		<g>
			<ellipse fill="#FBB902" cx="3798.4" cy="7052.2" rx="727.5" ry="725.6"/>
			<rect x="3799" y="6322.2" fill="#FBB902" width="3287" height="1454.1"/>
		</g>
		<g>
			<ellipse fill="#FBB902" cx="7081.6" cy="7052.2" rx="727.5" ry="725.6"/>
			<rect x="3799" y="6322.2" fill="#FBB902" width="3287" height="1454.1"/>
		</g>
	</g>
</g>
</svg>
