<?xml version="1.0" encoding="utf-8"?>
<!-- Generator: Adobe Illustrator 23.1.0, SVG Export Plug-In . SVG Version: 6.00 Build 0)  -->
<svg version="1.2" baseProfile="tiny" id="Layer_1" xmlns="http://www.w3.org/2000/svg" xmlns:xlink="http://www.w3.org/1999/xlink"
	 x="0px" y="0px" viewBox="0 0 14400 14400" xml:space="preserve">
<g>
	<polygon fill="none" stroke="#000000" stroke-width="383.7066" stroke-miterlimit="10" points="14326,14252 74,14252 74,6856.5 
		74,0 14326,0 	"/>
	<g>
		<g>
			<path d="M462.4,1568.5h1461.1c259.4,0,459.2,64.4,599.5,193.2s210.5,311.1,210.5,546.8c0,131.6-22.5,244.6-67.5,339.2
				c-45,94.6-107.2,169.2-186.6,224.1c113.8,52.1,199.2,119.2,256.1,201.5c56.9,82.2,85.4,198.7,85.4,349.4
				c0,249.4-76.8,444-230.3,583.8c-153.5,139.8-367.9,209.7-643.2,209.7h-1485V1568.5z M1693.2,2604.5
				c153.5,0,230.3-71.3,230.3-213.8c0-142.5-80.7-213.8-242.2-213.8h-409v427.6H1693.2z M1709.1,3611.8c82,0,142.9-18.5,182.6-55.5
				c39.7-37,59.6-95.2,59.6-174.7c0-142.5-83.4-213.8-250.2-213.8h-428.8v444H1709.1z"/>
			<path d="M3636.7,4133.9c-186.6-82.2-332.8-204.2-438.7-365.9c-105.9-161.7-158.8-356.3-158.8-583.8V1568.5h853.7v1512.9
				c0,285,129.7,427.5,389.1,427.5c259.4,0,389.1-142.5,389.1-427.5V1568.5h853.7v1615.6c0,227.5-52.9,422.1-158.8,583.8
				c-105.9,161.7-252.2,283.7-438.8,365.9c-186.6,82.2-401.7,123.3-645.1,123.3C4038.4,4257.2,3823.3,4216.1,3636.7,4133.9z"/>
			<path d="M6177.8,4212c-160.1-30.1-295.8-72.7-407-127.5v-690.7c124.4,60.3,262,109.7,412.9,148c150.9,38.4,287.2,57.5,409,57.5
				c111.1,0,193.8-11.6,248.1-34.9c54.3-23.3,81.4-63.7,81.4-121.3c0-52.1-25.2-92.5-75.4-121.3c-50.3-28.8-144.3-66.4-281.9-113.1
				c-39.7-11-90-27.4-150.9-49.3c-172.1-60.3-305.7-125.4-401-195.3c-95.3-69.9-164.1-154.2-206.5-252.8
				c-42.4-98.7-63.5-222-63.5-370c0-542.6,364-814,1091.9-814c129.7,0,272.6,12.3,428.8,37c156.2,24.7,287.2,53.5,393,86.3v694.8
				c-246.2-101.4-472.5-152.1-678.9-152.1c-113.8,0-203.1,9.6-268,28.8c-64.9,19.2-97.3,56.2-97.3,111c0,35.7,13.9,64.5,41.7,86.4
				c27.8,21.9,67.5,41.1,119.1,57.5c51.6,16.4,142.2,42.5,272,78.1c203.8,57.5,360,127.4,468.5,209.7
				c108.5,82.2,182.6,176.8,222.3,283.7c39.7,106.9,59.6,237.1,59.6,390.6c0,252.2-94.6,451.5-283.9,598.2
				c-189.3,146.6-465.2,219.9-827.8,219.9C6506.7,4257.2,6338,4242.1,6177.8,4212z"/>
			<path d="M8697.1,3250l-921.2-1681.5h889.4l460.6,920.8l460.6-920.8h889.4L9550.7,3250v966.1h-853.6V3250z"/>
		</g>
		<g>
			<path d="M720.5,8131.1C495.5,7916,383,7569.9,383,7093c0-482.3,112.5-831.1,337.5-1046.2C945.4,5831.6,1279,5724,1721,5724
				c442,0,775.5,107.6,1000.5,322.7c225,215.1,337.5,563.9,337.5,1046.2c0,476.9-112.5,823-337.5,1038.1
				c-225,215.2-558.5,322.7-1000.5,322.7C1279,8453.8,945.4,8346.3,720.5,8131.1z M2076.4,7561.7c72.8-95.9,109.2-252.1,109.2-468.7
				c0-224.7-35.7-383.7-107.2-476.8c-71.5-93.2-190.6-139.8-357.3-139.8c-166.8,0-286.6,46.6-359.4,139.8
				c-72.8,93.2-109.2,252.1-109.2,476.8c0,219.3,36.4,376.2,109.2,470.7c72.8,94.6,192.6,141.8,359.4,141.8
				C1885.1,7705.6,2003.5,7657.6,2076.4,7561.7z"/>
			<path d="M3297.3,5765.1h718.6l841.7,1221v-1221h853.6v2647.5h-726.6l-833.8-1216.9v1216.9h-853.6V5765.1z"/>
		</g>
		<g>
			<path d="M462.4,9958.1h1981.3v645.4H1316v349.5h976.8v661.9H1316v990.8H462.4V9958.1z"/>
			<path d="M2602.4,9958.1h1381.7c309.7,0,544,88.4,702.8,265.2c158.8,176.8,238.2,410.4,238.2,700.9
				c0,172.7-41.7,326.9-125.1,462.5c-83.4,135.7-195.2,246-335.5,330.9c50.3,41.1,92.6,101.4,127,180.9l297.8,707.1H4000l-262-612.6
				c-18.5-41.1-39.1-69.9-61.6-86.3s-54.9-24.7-97.3-24.7H3456v723.6h-853.6V9958.1z M3769.7,11199.7c92.6,0,163.4-23.3,212.4-69.9
				c49-46.6,73.5-115.1,73.5-205.5c0-186.3-88.7-279.6-266-279.6H3456v555H3769.7z"/>
			<path d="M5163.3,9958.1h853.6v2647.5h-853.6V9958.1z"/>
			<path d="M6334.6,9958.1h1179.2c415.5,0,733.1,106.9,952.9,320.7c219.7,213.8,329.6,553.6,329.6,1019.5
				c0,871.6-427.5,1307.3-1282.4,1307.3H6334.6V9958.1z M7410.5,11931.4c116.5,0,211.8-17.1,285.9-51.4
				c74.1-34.2,131-97.3,170.7-189.1c39.7-91.8,59.6-222.7,59.6-392.6c0-169.9-18.6-300.8-55.6-392.6c-37-91.8-92-155.5-164.7-191.2
				c-72.8-35.6-171.4-53.5-295.8-53.5h-222.3v1270.4H7410.5z"/>
			<path d="M9757.1,9958.1h893.4l984.7,2647.5h-889.4l-198.5-526.2h-686.9l-194.6,526.2h-889.4L9757.1,9958.1z M10444,11462.7
				l-242.2-641.3l-238.2,641.3H10444z"/>
			<path d="M12179.1,11639.6l-921.2-1681.5h889.4l460.6,920.8l460.6-920.8h889.4l-925.1,1681.5v966.1h-853.6V11639.6z"/>
		</g>
	</g>
</g>
</svg>
